<svg xmlns="http://www.w3.org/2000/svg" data-name="outline expand" viewBox="0 0 64 64"><rect width="2" height="22" x="31" y="40"/><path d="M62,4V2H2V4h8.37A19.63,19.63,0,0,1,16,17.61L2.29,31.29l1.42,1.42L17.39,19A19.63,19.63,0,0,1,31,24.63V26h2V24.63A19.63,19.63,0,0,1,46.61,19L60.29,32.71l1.42-1.42L48,17.61A19.63,19.63,0,0,1,53.63,4ZM31,8a6.41,6.41,0,0,0-1.81-.77L31,5.41Zm2-2.59,1.8,1.81A6.73,6.73,0,0,0,33,8ZM27.41,9A4.88,4.88,0,0,1,31,10.53v1.31A11.4,11.4,0,0,0,26.44,10ZM33,10.48A4.8,4.8,0,0,1,36.59,9l1,1A11.4,11.4,0,0,0,33,11.84Zm5-2.94A4.9,4.9,0,0,1,39.48,4h1.36A11.4,11.4,0,0,0,39,8.56ZM36.18,5.77,34.41,4H37A6.3,6.3,0,0,0,36.18,5.77Zm-8.4,0A6.74,6.74,0,0,0,27,4h2.59ZM26,7.59l-1,1A11.4,11.4,0,0,0,23.16,4h1.3A4.85,4.85,0,0,1,26,7.59Zm-2.79,2.79-1,1a16.7,16.7,0,0,0-3-7.38h1.35A9.57,9.57,0,0,1,23.21,10.38Zm1.41,1.41A9.57,9.57,0,0,1,31,14.43v1.35a16.77,16.77,0,0,0-7.4-3ZM33,14.43a9.57,9.57,0,0,1,6.38-2.64l1,1a16.69,16.69,0,0,0-7.38,3Zm7.79-4A9.57,9.57,0,0,1,43.43,4h1.33a16.69,16.69,0,0,0-3,7.38ZM13.13,4h3.44a14.13,14.13,0,0,1,3.8,9.22L17.89,15.7A21.69,21.69,0,0,0,13.13,4ZM19.3,17.11l2.46-2.46A14.14,14.14,0,0,1,31,18.43v3.44A21.69,21.69,0,0,0,19.3,17.11ZM33,21.88V18.41a14.13,14.13,0,0,1,9.21-3.78l2.49,2.48A21.62,21.62,0,0,0,33,21.88ZM46.12,15.7l-2.49-2.49A14.13,14.13,0,0,1,47.41,4h3.47A21.53,21.53,0,0,0,46.12,15.7Z"/><path d="M38.26,32.38a1.91,1.91,0,0,0,.74.14,2,2,0,0,0,1.12-.34A2,2,0,0,0,41,30.52V29H39v1.52l-2-.81a5.13,5.13,0,0,0-.23-1.24l1.18-.39a2,2,0,0,0,1.16-1l.81-1.63-1.78-.9-.82,1.63-1.56.52c-.14-.15-.28-.29-.43-.43a3,3,0,0,0,1.91-2.21L38,20.2l-2-.4-.77,3.87a1,1,0,0,1-.67.75l-1.9.63v0A5.2,5.2,0,0,0,32,25a5.2,5.2,0,0,0-.69.07v0l-1.9-.63a1,1,0,0,1-.67-.75L28,19.8l-2,.4.77,3.86a3,3,0,0,0,1.91,2.21l-.43.43-1.56-.52-.82-1.63-1.78.9.81,1.63a2,2,0,0,0,1.16,1l1.18.39A5.13,5.13,0,0,0,27,29.71l-2,.81V29H23v1.52a2,2,0,0,0,.88,1.66,2,2,0,0,0,1.12.34,1.91,1.91,0,0,0,.74-.14l1.59-.64a4.39,4.39,0,0,0,.29.62l-1.82,3-1.09-1.1-1.42,1.42,1.1,1.09a2,2,0,0,0,1.41.59l.25,0a2,2,0,0,0,1.47-.95L29,34a4.93,4.93,0,0,0,.53.36A3,3,0,0,0,29,36a3,3,0,0,0,6,0,3,3,0,0,0-.52-1.68A4.93,4.93,0,0,0,35,34l1.47,2.46a2,2,0,0,0,1.47.95l.25,0a2,2,0,0,0,1.41-.59l1.1-1.09-1.42-1.42-1.09,1.1-1.82-3a4.39,4.39,0,0,0,.29-.62ZM35,30a3,3,0,1,1-3-3A3,3,0,0,1,35,30Zm-2,6a1,1,0,1,1-1-1A1,1,0,0,1,33,36Z"/></svg>